<svg width="30" height="30" viewBox="0 0 30 30" fill="none" xmlns="http://www.w3.org/2000/svg">
<path d="M0 0L0 3.35409L26.646 30H30V26.646L3.354 9.99997e-05L0 9.99997e-05L0 0ZM30 0V3.35399L3.354 29.9999H0L0 26.6459L26.646 0L30 0Z" fill="white"/>
<path d="M12.5 0V29.9999H17.5V0L12.5 0ZM0 9.99998L0 20H30V9.99998H0Z" fill="white"/>
<path d="M0 12L0 18H30V12H0ZM13.5 0V29.9999H16.5V0L13.5 0Z" fill="#CC0000"/>
<path d="M0 29.9999L10 20H12.236L2.236 29.9999H0H0ZM0 0L10 9.99998H7.764L0 2.2361L0 0L0 0ZM17.764 9.99998L27.764 0L30 0L20 9.99998H17.764ZM30 29.9999L20 20H22.236L30 27.7639V29.9999Z" fill="#CC0000"/>
</svg>
