<svg width="47" height="47" viewBox="0 0 47 47" fill="none" xmlns="http://www.w3.org/2000/svg">
<path d="M47 23.5C47 36.478 36.478 47 23.5 47C10.522 47 0 36.478 0 23.5C0 10.522 10.522 0 23.5 0C36.4807 0 47 10.522 47 23.5Z" fill="white"/>
<path d="M11.5939 24.2896L11.6953 24.1303L17.8085 14.5668C17.8979 14.4268 18.1079 14.4413 18.1756 14.5934C19.1968 16.8823 20.0781 19.7288 19.6652 21.501C19.489 22.2301 19.0061 23.2176 18.4628 24.1303C18.3929 24.2631 18.3156 24.3935 18.2335 24.519C18.1949 24.5769 18.1297 24.6108 18.0596 24.6108H11.7725C11.6035 24.6108 11.5045 24.4273 11.5939 24.2896Z" fill="#2081E2"/>
<path d="M38.843 26.0667V27.5805C38.843 27.6674 38.7899 27.7447 38.7126 27.7785C38.2394 27.9813 36.6193 28.7249 35.9457 29.6617C34.2267 32.0544 32.9132 35.4756 29.9773 35.4756H17.729C13.3879 35.4756 9.87012 31.9457 9.87012 27.5901V27.4501C9.87012 27.3342 9.96427 27.24 10.0802 27.24H16.9081C17.0433 27.24 17.1423 27.3656 17.1303 27.4984C17.082 27.9426 17.164 28.3966 17.3741 28.8094C17.7797 29.6327 18.62 30.147 19.5277 30.147H22.9079V27.508H19.5664C19.3949 27.508 19.2936 27.3101 19.3925 27.17C19.4288 27.1145 19.4698 27.0565 19.5133 26.9914C19.8295 26.5423 20.281 25.8445 20.7301 25.0502C21.0367 24.5142 21.3337 23.9419 21.5728 23.3673C21.6211 23.2635 21.6597 23.1573 21.6983 23.0534C21.7635 22.87 21.8311 22.6985 21.8793 22.5271C21.9277 22.3823 21.9663 22.2302 22.0049 22.0877C22.1184 21.6 22.1667 21.0833 22.1667 20.5473C22.1667 20.3373 22.157 20.1176 22.1377 19.9075C22.1281 19.6781 22.0991 19.4487 22.0701 19.2194C22.0508 19.0166 22.0146 18.8162 21.976 18.6061C21.9277 18.2995 21.8601 17.9953 21.7828 17.6887L21.7563 17.5728C21.6983 17.3627 21.65 17.1623 21.5824 16.9523C21.3916 16.2931 21.1719 15.6509 20.9402 15.0497C20.8557 14.8107 20.7591 14.5813 20.6625 14.352C20.5201 14.0067 20.3752 13.6928 20.2424 13.3958C20.1748 13.2606 20.1168 13.1375 20.0589 13.0119C19.9937 12.8695 19.9261 12.7271 19.8585 12.5918C19.8103 12.488 19.7547 12.3914 19.716 12.2949L19.3032 11.5319C19.2453 11.4281 19.3418 11.305 19.4553 11.3363L22.0387 12.0365H22.046C22.0508 12.0365 22.0532 12.0389 22.0557 12.0389L22.396 12.1331L22.7703 12.2393L22.9079 12.278V10.7424C22.9079 10.0012 23.5018 9.39999 24.2358 9.39999C24.6028 9.39999 24.936 9.54966 25.175 9.79354C25.4141 10.0374 25.5638 10.3706 25.5638 10.7424V13.0216L25.839 13.0988C25.8607 13.1061 25.8824 13.1158 25.9018 13.1302C25.9694 13.1809 26.066 13.2558 26.1891 13.3475C26.2857 13.4248 26.3895 13.519 26.5151 13.6155C26.7637 13.816 27.0607 14.0743 27.3867 14.3712C27.4736 14.4461 27.558 14.5234 27.6353 14.6006C28.0554 14.9917 28.5262 15.4505 28.9753 15.9575C29.1009 16.0999 29.224 16.2448 29.3495 16.3969C29.4751 16.5515 29.6079 16.7036 29.7238 16.8557C29.8759 17.0585 30.0401 17.2685 30.1825 17.4883C30.2501 17.5921 30.3274 17.6983 30.3926 17.8021C30.5761 18.0798 30.7379 18.3671 30.8924 18.6544C30.9576 18.7872 31.0251 18.9321 31.0831 19.0745C31.2545 19.4584 31.3897 19.8496 31.4766 20.2407C31.5032 20.3252 31.5225 20.417 31.5322 20.499V20.5183C31.5611 20.6342 31.5708 20.7574 31.5805 20.8829C31.6191 21.2837 31.5998 21.6845 31.5128 22.0877C31.4766 22.2591 31.4283 22.4209 31.3704 22.5923C31.3125 22.7565 31.2545 22.9279 31.1797 23.0897C31.0348 23.4253 30.8634 23.7609 30.6606 24.0748C30.5954 24.1906 30.5181 24.3138 30.4409 24.4297C30.3564 24.5528 30.2694 24.6687 30.1922 24.7822C30.086 24.9271 29.9725 25.0791 29.8566 25.2143C29.7527 25.3568 29.6465 25.4993 29.5306 25.6248C29.3689 25.8155 29.2143 25.9966 29.0526 26.1705C28.956 26.284 28.8522 26.3998 28.7459 26.5037C28.6421 26.6195 28.5359 26.7234 28.4393 26.8199C28.2776 26.9817 28.1424 27.1072 28.0289 27.2111L27.7633 27.4549C27.7246 27.4887 27.6739 27.508 27.6208 27.508H25.5638V30.147H28.152C28.7315 30.147 29.282 29.9418 29.7262 29.5651C29.8783 29.4323 30.5423 28.8577 31.327 27.9909C31.3535 27.962 31.3873 27.9402 31.4259 27.9306L38.575 25.8638C38.7078 25.8252 38.843 25.9266 38.843 26.0667Z" fill="#2081E2"/>
</svg>
